<svg width="92" height="52" viewBox="0 0 92 52" fill="none" xmlns="http://www.w3.org/2000/svg">
<path d="M22.9754 18.911C24.0207 18.911 24.8527 19.2416 25.4714 19.903C26.1007 20.5643 26.4154 21.5083 26.4154 22.735V27.871H24.5914V22.927C24.5914 22.159 24.3994 21.567 24.0154 21.151C23.6314 20.7243 23.1034 20.511 22.4314 20.511C21.7167 20.511 21.146 20.7403 20.7194 21.199C20.3034 21.647 20.0954 22.3083 20.0954 23.183V27.871H18.2714V22.927C18.2714 22.159 18.0794 21.567 17.6954 21.151C17.3114 20.7243 16.7834 20.511 16.1114 20.511C15.3967 20.511 14.826 20.7403 14.3994 21.199C13.9834 21.647 13.7754 22.3083 13.7754 23.183V27.871H11.9514V19.055H13.7754V20.895C13.9994 20.255 14.3727 19.7643 14.8954 19.423C15.418 19.0816 16.0314 18.911 16.7354 18.911C17.4714 18.911 18.106 19.0923 18.6394 19.455C19.1834 19.8176 19.578 20.3403 19.8234 21.023C20.0794 20.3616 20.49 19.8443 21.0554 19.471C21.6207 19.0976 22.2607 18.911 22.9754 18.911ZM32.5771 18.943C33.4304 18.943 34.1984 19.1243 34.8811 19.487C35.5638 19.8496 36.0971 20.3723 36.4811 21.055C36.8651 21.7376 37.0571 22.5376 37.0571 23.455C37.0571 24.383 36.8651 25.1883 36.4811 25.871C36.0971 26.5536 35.5638 27.0763 34.8811 27.439C34.1984 27.8016 33.4304 27.983 32.5771 27.983C31.7238 27.983 30.9558 27.8016 30.2731 27.439C29.6011 27.0763 29.0678 26.5536 28.6731 25.871C28.2891 25.1776 28.0971 24.3723 28.0971 23.455C28.0971 22.5376 28.2891 21.7376 28.6731 21.055C29.0678 20.3723 29.6011 19.8496 30.2731 19.487C30.9558 19.1243 31.7238 18.943 32.5771 18.943ZM32.5771 20.527C32.1078 20.527 31.6758 20.6336 31.2811 20.847C30.8864 21.0603 30.5664 21.391 30.3211 21.839C30.0864 22.2763 29.9691 22.815 29.9691 23.455C29.9691 24.1056 30.0864 24.6496 30.3211 25.087C30.5664 25.5243 30.8864 25.8496 31.2811 26.063C31.6758 26.2763 32.1078 26.383 32.5771 26.383C33.0464 26.383 33.4784 26.2763 33.8731 26.063C34.2678 25.8496 34.5824 25.5243 34.8171 25.087C35.0624 24.6496 35.1851 24.1056 35.1851 23.455C35.1851 22.815 35.0624 22.2763 34.8171 21.839C34.5824 21.391 34.2678 21.0603 33.8731 20.847C33.4784 20.6336 33.0464 20.527 32.5771 20.527ZM49.8347 18.911C50.8801 18.911 51.7121 19.2416 52.3307 19.903C52.9601 20.5643 53.2747 21.5083 53.2747 22.735V27.871H51.4507V22.927C51.4507 22.159 51.2587 21.567 50.8747 21.151C50.4907 20.7243 49.9627 20.511 49.2907 20.511C48.5761 20.511 48.0054 20.7403 47.5787 21.199C47.1627 21.647 46.9547 22.3083 46.9547 23.183V27.871H45.1307V22.927C45.1307 22.159 44.9387 21.567 44.5547 21.151C44.1707 20.7243 43.6427 20.511 42.9707 20.511C42.2561 20.511 41.6854 20.7403 41.2587 21.199C40.8427 21.647 40.6347 22.3083 40.6347 23.183V27.871H38.8107V19.055H40.6347V20.895C40.8587 20.255 41.2321 19.7643 41.7547 19.423C42.2774 19.0816 42.8907 18.911 43.5947 18.911C44.3307 18.911 44.9654 19.0923 45.4987 19.455C46.0427 19.8176 46.4374 20.3403 46.6827 21.023C46.9387 20.3616 47.3494 19.8443 47.9147 19.471C48.4801 19.0976 49.1201 18.911 49.8347 18.911ZM63.5965 23.039C63.5965 23.3376 63.5751 23.599 63.5325 23.823H56.7485C56.7805 24.7296 57.0311 25.4016 57.5005 25.839C57.9698 26.2763 58.5511 26.495 59.2445 26.495C59.8525 26.495 60.3645 26.3403 60.7805 26.031C61.2071 25.7216 61.4685 25.311 61.5645 24.799H63.5165C63.3991 25.4176 63.1538 25.967 62.7805 26.447C62.4071 26.927 61.9218 27.3056 61.3245 27.583C60.7271 27.8496 60.0605 27.983 59.3245 27.983C58.4711 27.983 57.7138 27.8016 57.0525 27.439C56.4018 27.0763 55.8898 26.5536 55.5165 25.871C55.1431 25.1883 54.9565 24.383 54.9565 23.455C54.9565 22.5376 55.1431 21.7376 55.5165 21.055C55.8898 20.3723 56.4018 19.8496 57.0525 19.487C57.7138 19.1243 58.4711 18.943 59.3245 18.943C60.1885 18.943 60.9405 19.1243 61.5805 19.487C62.2311 19.839 62.7271 20.3296 63.0685 20.959C63.4205 21.5776 63.5965 22.271 63.5965 23.039ZM61.7565 22.991C61.7778 22.415 61.6765 21.935 61.4525 21.551C61.2391 21.1563 60.9405 20.8683 60.5565 20.687C60.1831 20.495 59.7725 20.399 59.3245 20.399C58.6098 20.399 58.0125 20.6176 57.5325 21.055C57.0525 21.4923 56.7911 22.1376 56.7485 22.991H61.7565ZM70.2856 18.911C71.3096 18.911 72.1309 19.2416 72.7496 19.903C73.3683 20.5643 73.6776 21.5083 73.6776 22.735V27.871H71.8536V22.927C71.8536 22.1376 71.6509 21.5296 71.2456 21.103C70.8403 20.6656 70.2856 20.447 69.5816 20.447C68.8563 20.447 68.2749 20.6816 67.8376 21.151C67.4003 21.6096 67.1816 22.287 67.1816 23.183V27.871H65.3576V19.055H67.1816V20.991C67.4163 20.3296 67.8109 19.8176 68.3656 19.455C68.9203 19.0923 69.5603 18.911 70.2856 18.911ZM80.2427 26.287V27.871H79.1227C78.1841 27.871 77.4694 27.647 76.9787 27.199C76.4987 26.7403 76.2587 25.983 76.2587 24.927V20.607H74.9947V19.055H76.2587V16.863H78.0987V19.055H80.2267V20.607H78.0987V24.959C78.0987 25.4603 78.1894 25.807 78.3707 25.999C78.5627 26.191 78.8934 26.287 79.3627 26.287H80.2427ZM85.9834 18.943C86.8367 18.943 87.6047 19.1243 88.2874 19.487C88.97 19.8496 89.5034 20.3723 89.8874 21.055C90.2714 21.7376 90.4634 22.5376 90.4634 23.455C90.4634 24.383 90.2714 25.1883 89.8874 25.871C89.5034 26.5536 88.97 27.0763 88.2874 27.439C87.6047 27.8016 86.8367 27.983 85.9834 27.983C85.13 27.983 84.362 27.8016 83.6794 27.439C83.0074 27.0763 82.474 26.5536 82.0794 25.871C81.6954 25.1776 81.5034 24.3723 81.5034 23.455C81.5034 22.5376 81.6954 21.7376 82.0794 21.055C82.474 20.3723 83.0074 19.8496 83.6794 19.487C84.362 19.1243 85.13 18.943 85.9834 18.943ZM85.9834 20.527C85.514 20.527 85.082 20.6336 84.6874 20.847C84.2927 21.0603 83.9727 21.391 83.7274 21.839C83.4927 22.2763 83.3754 22.815 83.3754 23.455C83.3754 24.1056 83.4927 24.6496 83.7274 25.087C83.9727 25.5243 84.2927 25.8496 84.6874 26.063C85.082 26.2763 85.514 26.383 85.9834 26.383C86.4527 26.383 86.8847 26.2763 87.2794 26.063C87.674 25.8496 87.9887 25.5243 88.2234 25.087C88.4687 24.6496 88.5914 24.1056 88.5914 23.455C88.5914 22.815 88.4687 22.2763 88.2234 21.839C87.9887 21.391 87.674 21.0603 87.2794 20.847C86.8847 20.6336 86.4527 20.527 85.9834 20.527Z" fill="white"/>
<path d="M32.5114 33.2581V51H1V1H64.0229V17.129" stroke="white" stroke-width="2"/>
</svg>
